<svg width="16" height="17" viewBox="0 0 16 17" fill="none" xmlns="http://www.w3.org/2000/svg">
<path d="M14.3374 15.9839L14.3539 15.9575L16 12.6163L11.1916 9.00996L8.97922 10.6691C8.14488 10.6195 7.3577 10.2657 6.76669 9.67465C6.17568 9.08363 5.82187 8.29645 5.77223 7.4621L7.43141 5.24977L3.82517 0.441406L0.511878 2.0738L0.483904 2.08754L0.457512 2.10409C0.317148 2.1912 0.201417 2.31279 0.121334 2.45728C0.0412511 2.60177 -0.000516993 2.76435 3.70594e-06 2.92955L3.66825e-06 3.7917C3.59564e-06 5.45289 0.327199 7.09781 0.962907 8.63254C1.59862 10.1673 2.53039 11.5618 3.70503 12.7364C4.87967 13.911 6.27416 14.8428 7.8089 15.4785C9.34363 16.1142 10.9886 16.4414 12.6497 16.4414L13.5119 16.4414C13.6771 16.4419 13.8397 16.4002 13.9842 16.3201C14.1287 16.24 14.2503 16.1243 14.3374 15.9839ZM12.6497 15.2067C6.35549 15.2067 1.23474 10.0859 1.23474 3.7917L1.23474 3.09408L3.45197 2.00188L5.88807 5.25L4.53183 7.05839L4.53183 7.26416C4.5332 8.49585 5.0231 9.6767 5.89404 10.5476C6.76498 11.4186 7.94582 11.9085 9.17751 11.9098L9.38329 11.9098L11.1916 10.5536L14.4396 12.9894L13.3472 15.2067L12.6497 15.2067Z" fill="white"/>
</svg>
