<svg width="124" height="29" viewBox="0 0 124 29" fill="none" xmlns="http://www.w3.org/2000/svg">
<g clip-path="url(#clip0_789_817)">
<path d="M94.012 15.4975H106.937L106.412 17.0268C102.638 17.4439 101.939 17.7219 100.948 20.6137L99.7093 24.2423C99.2722 25.5213 99.3742 26.2165 99.8987 26.5919C100.525 27.0506 101.604 27.1619 102.463 27.1619C109.545 27.1619 114.178 21.434 116.655 14.1768C119.133 6.91956 116.612 2.74875 111.381 2.74875C110.302 2.74875 108.641 2.91559 107.534 3.24925C104.561 4.11122 102.361 5.89076 100.132 9.39424L98.5436 9.10228C99.6219 6.83614 101.035 3.69414 101.735 1.88679C103.221 1.76166 107.301 0.941406 110.812 0.941406C120.021 0.941406 126.345 5.5988 123.183 14.8858C120.4 23.0467 112.561 28.9553 102.405 28.9553C98.9079 28.9553 94.4928 27.9682 92.4092 27.5928C93.0066 26.4806 93.5312 25.0765 94.0266 23.5889L95.1048 20.4191C96.0665 17.6107 95.8188 17.4439 93.4874 17.0407L94.012 15.5114V15.4975Z" fill="white"/>
<path d="M30.5116 17.0268C28.1948 17.4439 27.9471 17.5968 28.8942 20.4052L29.9725 23.575C30.4825 25.0626 30.9925 26.4667 31.5899 27.5789C29.5062 27.9543 25.0912 28.9414 21.5941 28.9414C11.4381 28.9414 3.5988 23.0467 0.815725 14.8719C-2.33163 5.59881 3.99222 0.941406 13.1866 0.941406C16.6836 0.941406 20.7781 1.76166 22.2352 1.88679C22.9346 3.70804 24.348 6.83614 25.4263 9.10228L23.8381 9.39424C21.6087 5.89076 19.4084 4.11122 16.4359 3.24925C15.3285 2.91559 13.6674 2.74875 12.5892 2.74875C7.35815 2.74875 4.89563 7.08639 7.31443 14.1768C9.79152 21.434 14.4251 27.1619 21.5067 27.1619C22.3664 27.1619 23.4592 27.0367 24.0712 26.5919C24.5957 26.2165 24.6977 25.5213 24.2606 24.2423L23.0221 20.6137C22.0458 17.7219 21.3318 17.4439 17.5579 17.0268L17.0333 15.4975H29.9579L30.4825 17.0268H30.5116Z" fill="white"/>
<path d="M85.7363 1.67773V3.20703C88.9711 3.49899 89.0585 4.1107 88.4611 6.26562C87.0332 11.0064 84.0898 20.3351 84.0898 20.3351L77.8388 1.88627H75.5511L70.0578 16.0253L64.5645 1.88627H62.2769L55.851 20.7244L48.4635 1.88627H46.1758C46.1758 1.88627 42.1105 14.5099 39.9102 20.3212C38.4823 15.8307 36.9669 11.0064 35.5389 6.25172C34.9269 4.1107 35.0144 3.48508 38.2637 3.19313V1.67773H25.208V3.20703C27.8454 3.45728 28.4865 4.15241 29.5793 7.29442C31.9981 14.5933 36.5006 28.9409 36.5006 28.9409H39.0068C39.0068 28.9409 43.2033 16.9429 45.4473 10.7145C47.9098 16.9012 52.5725 28.9409 52.5725 28.9409H55.0787L58.3718 19.4732H65.0017L68.6444 28.9409H71.4275C71.4275 28.9409 76.0903 16.9012 78.5528 10.7145C80.7967 16.9429 84.9932 28.9409 84.9932 28.9409H87.4994C87.4994 28.9409 92.0019 14.5933 94.4207 7.29442C95.499 4.16631 96.1547 3.45728 98.792 3.20703V1.67773H85.7363ZM59.1149 17.36C59.9018 15.1633 60.6886 12.9528 61.5046 10.7006C62.3934 12.9389 63.2823 15.1494 64.1565 17.36H59.1149Z" fill="white"/>
</g>
<defs>
<clipPath id="clip0_789_817">
<rect width="124" height="28" fill="white" transform="translate(0 0.941406)"/>
</clipPath>
</defs>
</svg>
