<svg width="128" height="44" viewBox="0 0 128 44" fill="none" xmlns="http://www.w3.org/2000/svg">
<g clip-path="url(#clip0_1_252)">
<path d="M54.8571 0C56.8319 2.00843 58.7911 4.01685 60.7813 6.00983C61.5899 6.82865 62.4606 7.60112 63.3625 8.46629C63.0204 8.83708 62.7561 9.11517 62.4917 9.39326C51.4363 20.3778 40.381 31.3624 29.3256 42.3469C27.0865 44.5716 25.1273 44.5716 22.8571 42.316C19.312 38.7935 15.7823 35.2865 12.2371 31.764C11.9883 31.5169 11.7396 31.2542 11.5374 31.0379C14.3984 28.2261 17.2284 25.4607 20.1205 22.618C21.9397 24.4719 23.9145 26.4958 25.9359 28.5506C26.3246 28.2107 26.5112 28.0407 26.6822 27.8708C35.8873 18.7093 45.1079 9.5632 54.3129 0.417135C54.4373 0.293539 54.5306 0.139045 54.6395 0C54.7172 0 54.7794 0 54.8571 0Z" fill="white"/>
<path d="M128 43.9071H123.242V29.0139H118.266V24.2245H123.149V10.5981H128V43.9071Z" fill="white"/>
<path d="M0 19.4661C2.55005 16.9633 5.1001 14.4605 7.6346 11.9577C7.93003 11.6641 8.13217 11.247 8.30321 10.9844C11.3508 14.0125 14.1497 16.8088 16.9018 19.5434C14.1497 22.2779 11.3353 25.0743 8.4276 27.9479C5.69096 25.2597 2.84548 22.4633 0 19.6824C0 19.6052 0 19.5434 0 19.4661Z" fill="white"/>
<path d="M99.4363 40.6629C103.479 36.9859 107.149 33.3707 109.932 28.7204H102.157C101.738 27.2836 101.349 25.9395 100.914 24.4564C101.396 24.4409 101.769 24.41 102.157 24.41C105.065 24.41 107.957 24.3791 110.865 24.4255C111.736 24.4409 112.124 24.1629 112.218 23.3286C112.342 22.1081 112.513 20.903 112.653 19.698C112.746 18.8637 112.342 18.5702 111.502 18.5856C108.097 18.6165 104.692 18.5856 101.271 18.5856C100.882 18.5856 100.478 18.5856 100.027 18.5856V14.3061C100.354 14.3061 100.696 14.2598 101.038 14.2598C105.827 14.2598 110.616 14.2598 115.405 14.2598C117.1 14.2598 117.598 14.7541 117.598 16.4536C117.629 26.2794 113.384 34.0505 105.998 40.3075C105.796 40.4775 105.5 40.632 105.236 40.632C103.401 40.6629 101.567 40.632 99.4363 40.632V40.6629Z" fill="white"/>
<path d="M59.0398 39.4732C60.1905 38.16 61.1701 37.0786 62.1186 35.9508C65.104 32.4283 68.1361 28.9367 71.0437 25.337C71.8678 24.3173 72.3809 23.0505 72.9563 21.8609C73.3294 21.1038 72.9874 20.7331 72.1166 20.7485C70.2663 20.7794 68.4159 20.7485 66.4878 20.7485V16.4999C67.0943 16.469 67.7007 16.4381 68.447 16.4072V13.0547H73.0029V16.469C74.1069 16.469 75.1176 16.469 76.1127 16.469C77.5899 16.4845 78.0408 17.0406 78.1497 18.5083C78.4295 22.2935 76.7813 25.3524 74.6045 28.226C74.0447 28.9522 73.9981 29.5547 74.3401 30.3735C75.6307 33.5097 77.31 36.3679 79.6579 38.8398C79.7979 38.9788 79.9067 39.1488 80.171 39.4732C78.3673 39.4732 76.7502 39.5196 75.1331 39.4423C74.7755 39.4269 74.3401 39.0715 74.0914 38.7471C72.8474 37.0322 71.6657 35.2864 70.4529 33.5561C69.0535 35.1628 67.4674 36.9241 65.9281 38.7317C65.4616 39.2878 64.9796 39.5041 64.2488 39.4887C62.6006 39.4423 60.9368 39.4887 59.0243 39.4887L59.0398 39.4732Z" fill="white"/>
<path d="M78.8494 29.0297V24.2249H83.7318V10.6294H88.3499V43.8611H83.8251V29.0297H78.8494Z" fill="white"/>
<path d="M95.1759 10.6294V43.8766H90.62V10.6294H95.1759Z" fill="white"/>
<path d="M61.6055 20.6868V16.5464H65.0107V20.6868H61.6055Z" fill="white"/>
</g>
<defs>
<clipPath id="clip0_1_252">
<rect width="128" height="44" fill="white"/>
</clipPath>
</defs>
</svg>
