<svg width="67" height="41" viewBox="0 0 67 41" fill="none" xmlns="http://www.w3.org/2000/svg">
<g id="Isolation_Mode" clip-path="url(#clip0_818_439)">
<path id="Vector" d="M46.7598 20.4863L26.5198 40.7263H67.0098V0.236328H26.5098L46.7498 20.4763L46.7598 20.4863ZM61.9098 4.81633H51.6698L48.7698 1.91633H64.8198V17.9663L61.9198 15.0663V4.81633H61.9098ZM55.1398 11.4063H44.8998L41.9998 8.50633H58.0498V24.5563L55.1498 21.6563V11.4163L55.1398 11.4063Z" fill="white"/>
<path id="Vector_2" d="M37.5894 20.5464L17.3594 0.316406V7.63641L30.2694 20.5464L17.3594 33.4664V40.7864L37.5894 20.5464Z" fill="white"/>
<path id="Vector_3" d="M20.7495 20.3257L0.519531 0.0957031V7.4157L13.4295 20.3257L0.519531 33.2457V40.5557L20.7495 20.3257Z" fill="white"/>
</g>
<defs>
<clipPath id="clip0_818_439">
<rect width="66.48" height="40.69" fill="white" transform="translate(0.519531 0.0957031)"/>
</clipPath>
</defs>
</svg>
